# xmcd
#
# Track frame offsets:
#	150
#	10577
#	23141
#	41683
#	57830
#	69916
#	83745
#	100151
#	117880
#	134650
#	150068
#	167222
#
# Disc length: 2428 seconds
#
# Revision: 0
# Processed by: cddbd v1.5.2PL0 Copyright (c) Steve Scherf et al.
# Submitted via: EasyCDDAExtractor 2010.6.0.0
#
DISCID=89097a0c
DTITLE=George Jones - Setlist: The Very Best Of George Jones Live
DYEAR=1900
DGENRE=
TTITLE0=I'm Ragged But I'm Right
TTITLE1=Once You've Had The Best
TTITLE2=Bartender's Blues
TTITLE3=Who's Gonna Fill Those Shoes
TTITLE4=White Lightning
TTITLE5=She Thinks I Still Care
TTITLE6=If Drinkin' Don't Kill Me (Her Memory Will)
TTITLE7=Still Doin' Time
TTITLE8=Wine Colored Roses
TTITLE9=You've Still Got A Place In My Heart
TTITLE10=He Stopped Loving Her Today
TTITLE11=One I Loved Back Then (The Corvette Song)
EXTD=
EXTT0=
EXTT1=
EXTT2=
EXTT3=
EXTT4=
EXTT5=
EXTT6=
EXTT7=
EXTT8=
EXTT9=
EXTT10=
EXTT11=
PLAYORDER=
